<svg xmlns="http://www.w3.org/2000/svg" xmlns:xlink="http://www.w3.org/1999/xlink" width="1240" height="673.68"><g transform="translate(-60 -60)"><path d="M0 0h1360v1760H0z" fill="#fff"/><path d="M80 85c0-2.76 2.24-5 5-5h310.58c2.76 0 5 2.24 5 5v621.36c0 2.77-2.24 5-5 5H85c-2.76 0-5-2.23-5-5z" fill="none"/><path d="M83.85 261.2c-2.25 0-3.85 1.26-3.85 3.8v110.48c0 1.9 1.6 3.8 3.85 3.8V261.2zM396.73 213.22c2.25 0 3.85 1.9 3.85 3.8v42.3c0 2.5-1.6 3.78-3.85 3.78v-49.88zM176.8 80.63c-74.36 0-92.95 24.62-92.95 54.93V655.8c0 30.3 29.8 54.93 130.47 54.93h51.94c100.66 0 130.47-24.62 130.47-54.93V135.56c0-30.3-18.6-54.93-92.97-54.93H176.8zm-69.87 80.82h269.93V641.9H106.93V161.46z"/><path d="M104.93 159.45h273.93V643.9H104.93z" fill="#fff"/><path d="M104.93 607.4h273.93v36.5H104.93z" fill="url(#a)"/><path d="M104.93 159.45h273.93v19.02H104.93z" fill="url(#b)"/><path d="M108 194.78h264v134H108z" fill="#111"/><path d="M108 208.78h264" stroke="#999" stroke-width="2" fill="none"/><path d="M108 248.78h264M108 288.78h264M108 328.78h264" stroke="#fff" fill="none"/><use xlink:href="#c" transform="matrix(1,0,0,1,113,194.78447904829605) translate(0 8)"/><use xlink:href="#d" transform="matrix(1,0,0,1,113,214.78447904829605) translate(0 18)"/><use xlink:href="#e" transform="matrix(1,0,0,1,113,214.78447904829605) translate(36.166666666666664 18)"/><use xlink:href="#f" transform="matrix(1,0,0,1,113,214.78447904829605) translate(51.5 18)"/><use xlink:href="#g" transform="matrix(1,0,0,1,113,214.78447904829605) translate(71.08333333333333 18)"/><use xlink:href="#h" transform="matrix(1,0,0,1,113,254.78447904829605) translate(0 18)"/><use xlink:href="#i" transform="matrix(1,0,0,1,113,254.78447904829605) translate(40.33333333333333 18)"/><use xlink:href="#j" transform="matrix(1,0,0,1,113,254.78447904829605) translate(68.20833333333333 18)"/><use xlink:href="#k" transform="matrix(1,0,0,1,113,254.78447904829605) translate(100.20833333333333 18)"/><use xlink:href="#l" transform="matrix(1,0,0,1,113,254.78447904829605) translate(141.33333333333331 18)"/><use xlink:href="#d" transform="matrix(1,0,0,1,113,294.784479048296) translate(0 18)"/><use xlink:href="#m" transform="matrix(1,0,0,1,113,294.784479048296) translate(36.166666666666664 18)"/><use xlink:href="#i" transform="matrix(1,0,0,1,113,294.784479048296) translate(55.75 18)"/><use xlink:href="#n" transform="matrix(1,0,0,1,113,294.784479048296) translate(83.625 18)"/><use xlink:href="#o" transform="matrix(1,0,0,1,113,294.784479048296) translate(99.04166666666667 18)"/><use xlink:href="#p" transform="matrix(1,0,0,1,113,294.784479048296) translate(135.25 18)"/><use xlink:href="#q" transform="matrix(1,0,0,1,113,294.784479048296) translate(156.41666666666666 18)"/><path d="M519.7 85.32c0-2.76 2.25-5 5-5h310.6c2.75 0 5 2.24 5 5v621.36c0 2.76-2.25 5-5 5H524.7c-2.75 0-5-2.24-5-5z" fill="none"/><path d="M523.56 261.52c-2.25 0-3.85 1.26-3.85 3.8V375.8c0 1.9 1.6 3.78 3.86 3.78V261.52zM836.44 213.54c2.25 0 3.85 1.9 3.85 3.78v42.3c0 2.53-1.6 3.8-3.86 3.8v-49.88z"/><path d="M616.53 80.95c-74.38 0-92.97 24.62-92.97 54.93v520.24c0 30.3 29.8 54.93 130.47 54.93h51.94c100.66 0 130.47-24.62 130.47-54.93V135.88c0-30.3-18.6-54.93-92.97-54.93H616.53zm-69.9 80.8h269.94v480.48H546.64V161.76z"/><path d="M544.64 159.76h273.93v484.47H544.64z" fill="#fff"/><path d="M544.64 607.7h273.93v36.53H544.64z" fill="url(#r)"/><path d="M544.64 159.76h273.93v19.03H544.64z" fill="url(#s)"/><path d="M548 200c0-2.76 2.24-5 5-5h254c2.76 0 5 2.24 5 5v11.33c0 2.76-2.24 5-5 5H553c-2.76 0-5-2.24-5-5z" fill="none"/><use xlink:href="#t" transform="matrix(1,0,0,1,548,195) translate(3.259259259259238 14.555555555555555)"/><use xlink:href="#u" transform="matrix(1,0,0,1,548,195) translate(49.62962962962961 14.555555555555555)"/><use xlink:href="#v" transform="matrix(1,0,0,1,548,195) translate(73.28395061728394 14.555555555555555)"/><use xlink:href="#w" transform="matrix(1,0,0,1,548,195) translate(109.77777777777777 14.555555555555555)"/><use xlink:href="#x" transform="matrix(1,0,0,1,548,195) translate(208.44444444444446 14.555555555555555)"/><path d="M548 222h264v34H548z" stroke="#fff" stroke-width="2" fill="#111"/><use xlink:href="#y" transform="matrix(1,0,0,1,561.2,223.7) translate(18 18.5)"/><use xlink:href="#z" transform="matrix(1,0,0,1,561.2,223.7) translate(36.70833333333333 18.5)"/><path d="M571 239c0 4.14-3.36 7.5-7.5 7.5-4.14 0-7.5-3.36-7.5-7.5 0-4.14 3.36-7.5 7.5-7.5 4.14 0 7.5 3.36 7.5 7.5" fill="#fff"/><path d="M571 239c0 4.14-3.36 7.5-7.5 7.5-4.14 0-7.5-3.36-7.5-7.5 0-4.14 3.36-7.5 7.5-7.5 4.14 0 7.5 3.36 7.5 7.5" stroke="#5c5c5c" fill="none"/><path d="M548 261.67h264v34H548z" stroke="#fff" stroke-width="2" fill="#111"/><use xlink:href="#y" transform="matrix(1,0,0,1,561.2,263.3666666666666) translate(18 18.5)"/><use xlink:href="#A" transform="matrix(1,0,0,1,561.2,263.3666666666666) translate(36.70833333333333 18.5)"/><path d="M571 278.67c0 4.14-3.36 7.5-7.5 7.5-4.14 0-7.5-3.36-7.5-7.5 0-4.15 3.36-7.5 7.5-7.5 4.14 0 7.5 3.35 7.5 7.5" fill="#fff"/><path d="M571 278.67c0 4.14-3.36 7.5-7.5 7.5-4.14 0-7.5-3.36-7.5-7.5 0-4.15 3.36-7.5 7.5-7.5 4.14 0 7.5 3.35 7.5 7.5" stroke="#5c5c5c" fill="none"/><path d="M548 301.33h264v34H548z" stroke="#fff" stroke-width="2" fill="#111"/><use xlink:href="#y" transform="matrix(1,0,0,1,561.2,303.03333333333325) translate(18 18.5)"/><use xlink:href="#B" transform="matrix(1,0,0,1,561.2,303.03333333333325) translate(36.70833333333333 18.5)"/><path d="M571 318.33c0 4.15-3.36 7.5-7.5 7.5-4.14 0-7.5-3.35-7.5-7.5 0-4.14 3.36-7.5 7.5-7.5 4.14 0 7.5 3.36 7.5 7.5" fill="#fff"/><path d="M571 318.33c0 4.15-3.36 7.5-7.5 7.5-4.14 0-7.5-3.35-7.5-7.5 0-4.14 3.36-7.5 7.5-7.5 4.14 0 7.5 3.36 7.5 7.5" stroke="#5c5c5c" fill="none"/><path d="M548 341h264v34H548z" stroke="#fff" stroke-width="2" fill="#111"/><use xlink:href="#y" transform="matrix(1,0,0,1,561.2,342.6999999999999) translate(18 18.5)"/><use xlink:href="#C" transform="matrix(1,0,0,1,561.2,342.6999999999999) translate(36.70833333333333 18.5)"/><path d="M571 358c0 4.14-3.36 7.5-7.5 7.5-4.14 0-7.5-3.36-7.5-7.5 0-4.14 3.36-7.5 7.5-7.5 4.14 0 7.5 3.36 7.5 7.5" fill="#fff"/><path d="M571 358c0 4.14-3.36 7.5-7.5 7.5-4.14 0-7.5-3.36-7.5-7.5 0-4.14 3.36-7.5 7.5-7.5 4.14 0 7.5 3.36 7.5 7.5" stroke="#5c5c5c" fill="none"/><path d="M548 380.67h264v34H548z" stroke="#fff" stroke-width="2" fill="#111"/><use xlink:href="#y" transform="matrix(1,0,0,1,561.2,382.3666666666665) translate(18 18.5)"/><use xlink:href="#D" transform="matrix(1,0,0,1,561.2,382.3666666666665) translate(36.70833333333333 18.5)"/><path d="M571 397.67c0 4.14-3.36 7.5-7.5 7.5-4.14 0-7.5-3.36-7.5-7.5 0-4.15 3.36-7.5 7.5-7.5 4.14 0 7.5 3.35 7.5 7.5" fill="#fff"/><path d="M571 397.67c0 4.14-3.36 7.5-7.5 7.5-4.14 0-7.5-3.36-7.5-7.5 0-4.15 3.36-7.5 7.5-7.5 4.14 0 7.5 3.35 7.5 7.5" stroke="#5c5c5c" fill="none"/><path d="M959.42 87.32c0-2.76 2.24-5 5-5H1275c2.76 0 5 2.24 5 5v621.36c0 2.76-2.24 5-5 5H964.42c-2.76 0-5-2.24-5-5z" fill="none"/><path d="M963.27 263.52c-2.25 0-3.85 1.26-3.85 3.8V377.8c0 1.9 1.6 3.78 3.85 3.78V263.52zM1276.15 215.54c2.25 0 3.85 1.9 3.85 3.78v42.3c0 2.53-1.6 3.8-3.85 3.8v-49.88zM1056.24 82.95c-74.38 0-92.97 24.62-92.97 54.93v520.24c0 30.3 29.8 54.93 130.47 54.93h51.94c100.66 0 130.47-24.62 130.47-54.93V137.88c0-30.3-18.6-54.93-92.96-54.93h-126.96zm-69.9 80.8h269.94v480.48H986.35V163.76z"/><path d="M984.35 161.76h273.93v484.47H984.35z" fill="#fff"/><path d="M984.35 609.7h273.93v36.53H984.35z" fill="url(#E)"/><path d="M984.35 161.76h273.93v19.03H984.35z" fill="url(#F)"/><path d="M987.7 203.68c0-2.76 2.25-5 5-5h254c2.77 0 5 2.24 5 5v11.34c0 2.76-2.23 5-5 5h-254c-2.75 0-5-2.24-5-5z" fill="none"/><use xlink:href="#t" transform="matrix(1,0,0,1,987.7108173342456,198.68184043426226) translate(3.259259259259238 14.555555555555555)"/><use xlink:href="#u" transform="matrix(1,0,0,1,987.7108173342456,198.68184043426226) translate(49.62962962962961 14.555555555555555)"/><use xlink:href="#v" transform="matrix(1,0,0,1,987.7108173342456,198.68184043426226) translate(73.28395061728394 14.555555555555555)"/><use xlink:href="#w" transform="matrix(1,0,0,1,987.7108173342456,198.68184043426226) translate(109.77777777777777 14.555555555555555)"/><use xlink:href="#x" transform="matrix(1,0,0,1,987.7108173342456,198.68184043426226) translate(208.44444444444446 14.555555555555555)"/><path d="M987.7 225.68H1100v34H987.7z" stroke="#fff" stroke-width="2" fill="#111"/><use xlink:href="#G" transform="matrix(1,0,0,1,993.3252764675332,227.38184043426224) translate(0 18.5)"/><path d="M987.7 265.35H1092v34H987.7z" stroke="#fff" stroke-width="2" fill="#111"/><use xlink:href="#H" transform="matrix(1,0,0,1,992.9252764675332,267.0485071009289) translate(0 18.5)"/><path d="M987.7 305.02h56.3v34h-56.3z" stroke="#fff" stroke-width="2" fill="#111"/><use xlink:href="#I" transform="matrix(1,0,0,1,990.5252764675332,306.7151737675955) translate(0 18.5)"/><path d="M987.7 344.68h80.3v34h-80.3z" stroke="#fff" stroke-width="2" fill="#111"/><use xlink:href="#J" transform="matrix(1,0,0,1,991.7252764675331,346.38184043426213) translate(0 18.5)"/><path d="M987.7 384.35h96.3v34h-96.3z" stroke="#fff" stroke-width="2" fill="#111"/><use xlink:href="#K" transform="matrix(1,0,0,1,992.5252764675332,386.04850710092876) translate(0 18.5)"/><path d="M1000 218c0-2.76 2.24-5 5-5h230c2.76 0 5 2.24 5 5v50c0 2.76-2.24 5-5 5h-230c-2.76 0-5-2.24-5-5z" fill="none"/><use xlink:href="#L" transform="matrix(1,0,0,1,1000,213) translate(102 33.6)"/><path d="M992 257.35c0-2.76 2.24-5 5-5h230c2.76 0 5 2.24 5 5v50c0 2.76-2.24 5-5 5H997c-2.76 0-5-2.24-5-5z" fill="none"/><use xlink:href="#M" transform="matrix(1,0,0,1,992,252.34850710094906) translate(102 33.6)"/><path d="M944 297c0-2.76 2.24-5 5-5h230c2.76 0 5 2.24 5 5v50c0 2.76-2.24 5-5 5H949c-2.76 0-5-2.24-5-5z" fill="none"/><use xlink:href="#N" transform="matrix(1,0,0,1,944,292) translate(102 33.6)"/><path d="M967.42 337c0-2.76 2.24-5 5-5h230c2.76 0 5 2.24 5 5v50c0 2.76-2.24 5-5 5h-230c-2.76 0-5-2.24-5-5z" fill="none"/><use xlink:href="#O" transform="matrix(1,0,0,1,967.4216346684843,332) translate(102 33.6)"/><path d="M984 376c0-2.76 2.24-5 5-5h230c2.76 0 5 2.24 5 5v50c0 2.76-2.24 5-5 5H989c-2.76 0-5-2.24-5-5z" fill="none"/><g><use xlink:href="#P" transform="matrix(1,0,0,1,984,371) translate(102 33.6)"/></g><path d="M620 431h120v30H620z" fill="#dfe0df"/><path d="M620 461h120" stroke="#c6c5c6" fill="none"/><g><use xlink:href="#Q" transform="matrix(1,0,0,1,644,438.5) translate(20.604166666666668 12)"/></g><path d="M992 436c0-2.76 2.24-5 5-5h238c2.76 0 5 2.24 5 5v59c0 2.76-2.24 5-5 5H997c-2.76 0-5-2.24-5-5z" fill="none"/><g><use xlink:href="#R" transform="matrix(1,0,0,1,992,431) translate(0 14.4)"/><use xlink:href="#S" transform="matrix(1,0,0,1,992,431) translate(22 14.4)"/><use xlink:href="#T" transform="matrix(1,0,0,1,992,431) translate(82 14.4)"/><use xlink:href="#U" transform="matrix(1,0,0,1,992,431) translate(144.95 14.4)"/></g><path d="M549 597c0 2.76 2.24 5 5 5h254c2.76 0 5-2.24 5-5v-15c0-2.76-2.24-5-5-5H554c-2.76 0-5 2.24-5 5z" stroke="#000" stroke-width="2"/><path d="M549 580c0-2.76 2.24-5 5-5h20c2.76 0 5 2.24 5 5v20c0 2.76-2.24 5-5 5h-20c-2.76 0-5-2.24-5-5z" fill="none"/><path d="M563.37 599.93l1.74-1.7-6.98-7h16.4v-2.46h-16.4l7-7-1.75-1.7-9.9 9.93 9.9 9.93z" fill="#fff"/><path d="M781 580c0-2.76 2.24-5 5-5h20c2.76 0 5 2.24 5 5v20c0 2.76-2.24 5-5 5h-20c-2.76 0-5-2.24-5-5z" fill="none"/><path d="M802.84 594.02c-1 0-1.9.45-2.52 1.17l-7.95-4.3c.1-.27.12-.6.12-.9 0-.33-.04-.63-.13-.9l7.95-4.3c.63.73 1.53 1.18 2.52 1.18 1.86 0 3.36-1.5 3.36-3.33 0-1.86-1.5-3.36-3.36-3.36-1.83 0-3.33 1.5-3.33 3.35 0 .3.04.6.13.9l-7.95 4.26c-.63-.68-1.53-1.13-2.52-1.13-1.86 0-3.36 1.47-3.36 3.33 0 1.83 1.5 3.33 3.36 3.33 1 0 1.9-.45 2.52-1.14l7.95 4.25c-.1.3-.12.6-.12.9 0 1.86 1.5 3.36 3.34 3.36 1.86 0 3.36-1.5 3.36-3.35 0-1.83-1.5-3.33-3.36-3.33" fill="#c6c5c6"/><g><path d="M694.54 595c0 2.76-2.24 5-5 5h-21.08c-2.76 0-5-2.24-5-5v-2c0-2.76 2-6.02 4.45-7.3l6.65-3.4c2.46-1.28 6.44-1.28 8.9 0l6.64 3.4c2.45 1.28 4.44 4.54 4.44 7.3z" stroke="#fff" stroke-width="2" fill="none"/></g><path d="M989 599c0 2.76 2.24 5 5 5h254c2.76 0 5-2.24 5-5v-15c0-2.76-2.24-5-5-5H994c-2.76 0-5 2.24-5 5z" stroke="#000" stroke-width="2"/><path d="M989 582c0-2.76 2.24-5 5-5h20c2.76 0 5 2.24 5 5v20c0 2.76-2.24 5-5 5h-20c-2.76 0-5-2.24-5-5z" fill="none"/><path d="M1003.37 601.93l1.74-1.7-6.98-7h16.4v-2.46h-16.4l7-7-1.75-1.7-9.9 9.93 9.9 9.93z" fill="#fff"/><path d="M1221 582c0-2.76 2.24-5 5-5h20c2.76 0 5 2.24 5 5v20c0 2.76-2.24 5-5 5h-20c-2.76 0-5-2.24-5-5z" fill="none"/><path d="M1242.84 596.02c-1 0-1.9.45-2.52 1.17l-7.95-4.3c.1-.27.12-.6.12-.9 0-.33-.04-.63-.13-.9l7.95-4.3c.63.73 1.53 1.18 2.52 1.18 1.86 0 3.36-1.5 3.36-3.33 0-1.86-1.5-3.36-3.36-3.36-1.83 0-3.33 1.5-3.33 3.35 0 .3.04.6.13.9l-7.95 4.26c-.63-.68-1.53-1.13-2.52-1.13-1.86 0-3.36 1.47-3.36 3.33 0 1.83 1.5 3.33 3.36 3.33 1 0 1.9-.45 2.52-1.14l7.95 4.25c-.1.3-.12.6-.12.9 0 1.86 1.5 3.36 3.34 3.36 1.86 0 3.36-1.5 3.36-3.35 0-1.83-1.5-3.33-3.36-3.33" fill="#c6c5c6"/><g><path d="M1134.54 597c0 2.76-2.24 5-5 5h-21.08c-2.76 0-5-2.24-5-5v-2c0-2.76 2-6.02 4.45-7.3l6.65-3.4c2.46-1.28 6.44-1.28 8.9 0l6.64 3.4c2.45 1.28 4.44 4.54 4.44 7.3z" stroke="#fff" stroke-width="2" fill="none"/></g><path d="M110 597c0 2.76 2.24 5 5 5h254c2.76 0 5-2.24 5-5v-15c0-2.76-2.24-5-5-5H115c-2.76 0-5 2.24-5 5z" stroke="#000" stroke-width="2"/><path d="M110 580c0-2.76 2.24-5 5-5h20c2.76 0 5 2.24 5 5v20c0 2.76-2.24 5-5 5h-20c-2.76 0-5-2.24-5-5z" fill="none"/><path d="M124.37 599.93l1.74-1.7-6.98-7h16.4v-2.46h-16.4l7-7-1.75-1.7-9.9 9.93 9.9 9.93z" fill="#fff"/><path d="M342 580c0-2.76 2.24-5 5-5h20c2.76 0 5 2.24 5 5v20c0 2.76-2.24 5-5 5h-20c-2.76 0-5-2.24-5-5z" fill="none"/><path d="M363.84 594.02c-1 0-1.9.45-2.52 1.17l-7.95-4.3c.1-.27.12-.6.12-.9 0-.33-.04-.63-.13-.9l7.95-4.3c.63.73 1.53 1.18 2.52 1.18 1.86 0 3.36-1.5 3.36-3.33 0-1.86-1.5-3.36-3.36-3.36-1.83 0-3.33 1.5-3.33 3.35 0 .3.04.6.13.9l-7.95 4.26c-.63-.68-1.53-1.13-2.52-1.13-1.86 0-3.36 1.47-3.36 3.33 0 1.83 1.5 3.33 3.36 3.33 1 0 1.9-.45 2.52-1.14l7.95 4.25c-.1.3-.12.6-.12.9 0 1.86 1.5 3.36 3.34 3.36 1.86 0 3.36-1.5 3.36-3.35 0-1.83-1.5-3.33-3.36-3.33" fill="#c6c5c6"/><g><path d="M255.54 595c0 2.76-2.24 5-5 5h-21.08c-2.76 0-5-2.24-5-5v-2c0-2.76 2-6.02 4.45-7.3l6.65-3.4c2.46-1.28 6.44-1.28 8.9 0l6.64 3.4c2.45 1.28 4.44 4.54 4.44 7.3z" stroke="#fff" stroke-width="2" fill="none"/></g><defs><image width="1" height="1" id="V" xlink:href="https://d2slcw3kip6qmk.cloudfront.net/app/webroot/img/android/phone_tall_bar_bottom.png" preserveAspectRatio="none"/><pattern id="a" patternUnits="userSpaceOnUse" width="400.58" height="711.36"><use xlink:href="#V" transform="translate(-2127.3246205912124,80) scale(4735.227606513934,631.3636808685245)"/></pattern><image width="1" height="1" id="W" xlink:href="https://d2slcw3kip6qmk.cloudfront.net/app/webroot/img/android/phone_tall_bar_top.png" preserveAspectRatio="none"/><pattern id="b" patternUnits="userSpaceOnUse" width="400.58" height="711.36"><use xlink:href="#W" transform="translate(-4305.529319587622,80) scale(9091.637004506752,631.3636808685245)"/></pattern><path fill="#999" d="M185-72C185 13 82 14 19-9v-63h16c2 37 21 58 61 58 46 0 69-51 31-71-42-23-106-23-106-90 0-69 87-70 148-56v56h-16l-7-32c-26-25-110-13-82 35 39 34 121 26 121 100" id="X"/><path fill="#999" d="M186-86c2 69-46 103-114 85l1 62 25 4v12H5V65l18-4v-210l-18-5v-11h67v8c12-8 26-13 46-13 49 2 67 30 68 84zm-83 71c28 0 31-33 31-69 0-34-2-66-30-66-12 0-23 3-31 7v124c9 2 20 4 30 4" id="Y"/><path fill="#999" d="M166-83c7 72-58 104-118 78L35 15H12l22-32C20-32 17-54 14-83c-7-73 60-104 118-77l14-20h21l-20 31c14 15 16 38 19 66zm-77-69c-32 0-23 55-23 89l45-67c-4-12-8-22-22-22zm0 138c33 0 25-52 25-88L69-35c4 13 6 21 20 21" id="Z"/><path fill="#999" d="M132-132c-21 0-37 9-50 16v100l26 4V0H10v-12l21-4v-133l-21-5v-11h69l2 34c17-18 35-41 71-40v61c-17 3-14-14-20-22" id="aa"/><path fill="#999" d="M9 41c2-18 18-26 32-33C29 1 16-9 16-28l29-33c-21-9-31-25-31-51-2-56 61-65 111-53l39-20c13 12-9 24-14 36 35 54-17 114-90 92-17 34 27 28 56 28 36-1 61 12 60 46-2 46-39 62-91 62-38 0-71-6-76-38zm35-3c6 35 97 29 94-9-2-28-50-14-78-17-8 7-15 14-16 26zm20-150c0 22 4 40 23 40 20 0 24-17 24-40 0-24-4-40-24-40-19 0-23 17-23 40" id="ab"/><path fill="#999" d="M102-142c-14-17-68-15-54 18 24 26 83 17 83 72 0 62-72 62-120 47v-45h12c4 23 16 37 43 37 35 0 39-37 9-46-31-9-65-19-64-61 0-52 59-55 108-45v43h-11" id="ac"/><path fill="#999" d="M126-114c3-31-27-37-49-25v123l15 4V0H10v-12l16-4v-133l-16-5v-11h64l2 14c24-16 81-33 96 3 30-24 105-39 105 27v105l17 4V0h-82v-12l14-4v-98c4-33-27-37-51-24 5 35 0 82 2 122l17 4V0h-83v-12l15-4v-98" id="ad"/><path fill="#999" d="M31-163c51-5 127-20 127 40v107l17 4V0h-61l-4-13C82 13 12 12 12-46c0-51 46-52 95-53 9-45-22-69-57-44l-7 20H31v-40zM62-47c0 30 26 34 45 23v-59c-28 0-45 6-45 36zm66-177c0 23-14 38-37 38s-37-16-37-38 15-37 37-37c23 0 37 15 37 37zm-20 0c0-10-7-17-17-17-24 0-20 35 0 35 9 0 17-7 17-18" id="ae"/><path fill="#999" d="M76-16l18 4V0H7v-12l18-4v-218l-17-4v-12h68v234" id="af"/><g id="c"><use transform="matrix(0.027777777777777776,0,0,0.027777777777777776,0,0)" xlink:href="#X"/><use transform="matrix(0.027777777777777776,0,0,0.027777777777777776,5.555555555555555,0)" xlink:href="#Y"/><use transform="matrix(0.027777777777777776,0,0,0.027777777777777776,11.11111111111111,0)" xlink:href="#Z"/><use transform="matrix(0.027777777777777776,0,0,0.027777777777777776,16.11111111111111,0)" xlink:href="#aa"/><use transform="matrix(0.027777777777777776,0,0,0.027777777777777776,20.52777777777778,0)" xlink:href="#ab"/><use transform="matrix(0.027777777777777776,0,0,0.027777777777777776,25.52777777777778,0)" xlink:href="#ac"/><use transform="matrix(0.027777777777777776,0,0,0.027777777777777776,29.416666666666664,0)" xlink:href="#ad"/><use transform="matrix(0.027777777777777776,0,0,0.027777777777777776,37.72222222222222,0)" xlink:href="#ae"/><use transform="matrix(0.027777777777777776,0,0,0.027777777777777776,42.72222222222222,0)" xlink:href="#af"/></g><path fill="#fff" d="M10 0v-9l31-5v-208l-31-4v-10h95v10l-30 4v93h110v-93l-30-4v-10h94v10l-30 4v208l30 5v9h-94v-9l30-5v-99H75v99l30 5v9H10" id="ag"/><path fill="#fff" d="M164-154L98 4H85L17-153c-7-3-20 0-17-12h77v8l-26 4L99-38l46-115-26-4v-8h61v8" id="ah"/><path fill="#fff" d="M32-163c41-10 102-14 102 39v112c8 3 24-2 21 12h-45l-4-17C83 13 3 13 13-46c-2-50 45-50 92-51 4-36-5-70-42-56-6 2-12 4-16 6-4 7 0 23-15 20v-36zM42-47c0 41 41 33 63 22v-59c-34 1-63-1-63 37" id="ai"/><path fill="#fff" d="M13-81c0-71 46-101 114-85l-1-72-28-4v-8h57v238c8 3 24-2 21 12h-47l-2-12C80 23 13-1 13-81zm77-74c-37 1-44 33-45 74 0 38 9 66 45 66 14 0 27-3 36-7v-130c-10-1-24-3-36-3" id="aj"/><g id="d"><use transform="matrix(0.041666666666666664,0,0,0.041666666666666664,0,0)" xlink:href="#ag"/><use transform="matrix(0.041666666666666664,0,0,0.041666666666666664,10.791666666666666,0)" xlink:href="#ah"/><use transform="matrix(0.041666666666666664,0,0,0.041666666666666664,18.291666666666664,0)" xlink:href="#ai"/><use transform="matrix(0.041666666666666664,0,0,0.041666666666666664,24.916666666666664,0)" xlink:href="#aj"/></g><path fill="#fff" d="M84-170c49 0 66 33 63 87H46c-8 60 38 80 95 63v10C128-2 108 4 88 4 34 4 14-29 14-84c-1-54 22-86 70-86zm33 73c12-57-57-82-69-24-1 7-2 15-2 24h71" id="ak"/><path fill="#fff" d="M57-145c16-10 35-24 60-25v45c-19 1-8-30-40-17l-20 6v124l29 4v8H7v-8l21-4v-141c-8-3-24 2-21-12h48" id="al"/><g id="e"><use transform="matrix(0.041666666666666664,0,0,0.041666666666666664,0,0)" xlink:href="#ak"/><use transform="matrix(0.041666666666666664,0,0,0.041666666666666664,6.625,0)" xlink:href="#al"/></g><path fill="#fff" d="M47-200c-23 0-25-39 0-38 13 0 18 7 20 19-1 11-8 19-20 19zM65-12l28 4v8H8v-8l28-4v-141l-24-4v-8h53v153" id="am"/><path fill="#fff" d="M54-38c-1 25 24 26 44 20v12C71 10 25 9 25-35v-115H4c-2-14 14-10 21-15l18-38h11v38h38v15H54v112" id="an"/><g id="f"><use transform="matrix(0.041666666666666664,0,0,0.041666666666666664,0,0)" xlink:href="#aj"/><use transform="matrix(0.041666666666666664,0,0,0.041666666666666664,7.5,0)" xlink:href="#am"/><use transform="matrix(0.041666666666666664,0,0,0.041666666666666664,11.666666666666666,0)" xlink:href="#an"/></g><path fill="#fff" d="M161-154L85 37C75 66 49 86 8 75V39c18-2 6 24 29 21 30-4 38-32 47-58L21-153c-7-3-20 0-17-12h77v8l-26 4 45 116 43-116-26-4v-8h62v8" id="ao"/><path fill="#fff" d="M125-118c4-37-41-34-68-26v132l23 4v8H8C5-13 21-9 28-12v-141c-7-3-23 1-20-12h47l2 13c31-23 98-29 98 31v109c7 3 23-1 20 12h-72v-8l22-4v-106" id="ap"/><path fill="#fff" d="M65-12l28 4v8H7v-8l28-4v-226l-28-4v-8h58v238" id="aq"/><path fill="#fff" d="M141-152c28 39 5 97-54 97-9 0-20-2-27-3L49-35c29 22 130-14 124 52-4 45-38 57-88 61C21 83-8 26 45-2 33-6 22-15 21-31l28-31c-19-9-28-26-28-51-2-51 53-65 100-52l38-20 7 8zM85 64c35 0 61-11 61-42 0-35-57-17-89-21-9 8-16 19-17 34 0 25 19 29 45 29zM52-113c1 26 7 46 35 44 28-1 34-16 35-44 0-26-6-43-34-43s-36 17-36 43" id="ar"/><path fill="#fff" d="M41-130c7 48 86 23 86 84 0 56-69 57-112 41v-40c20 0 9 29 31 31 35 19 77-26 41-50-27-18-72-13-72-59 0-50 58-52 100-41v36c-19 1-8-25-28-25-21-7-50-1-46 23" id="as"/><path fill="#fff" d="M53-14c58 12 82-15 82-73 0-52-35-77-82-58v131zM89 4C64 4 42-2 24-9v-229l-24-4v-8h53l-1 94c48-33 114-4 114 69 0 57-23 91-77 91" id="at"/><path fill="#fff" d="M19-231c61-19 146-3 123 76-8 29-32 42-62 48l-3 45H63l-4-58c33-4 57-15 54-56 6-47-42-58-77-39l-6 29H19v-45zM72-37c14 0 21 9 21 21S84 5 72 5 50-2 51-16c0-13 8-21 21-21" id="au"/><g id="g"><use transform="matrix(0.041666666666666664,0,0,0.041666666666666664,0,0)" xlink:href="#ao"/><use transform="matrix(0.041666666666666664,0,0,0.041666666666666664,7.5,0)" xlink:href="#ap"/><use transform="matrix(0.041666666666666664,0,0,0.041666666666666664,15,0)" xlink:href="#aj"/><use transform="matrix(0.041666666666666664,0,0,0.041666666666666664,22.5,0)" xlink:href="#aq"/><use transform="matrix(0.041666666666666664,0,0,0.041666666666666664,26.666666666666664,0)" xlink:href="#am"/><use transform="matrix(0.041666666666666664,0,0,0.041666666666666664,30.83333333333333,0)" xlink:href="#ap"/><use transform="matrix(0.041666666666666664,0,0,0.041666666666666664,38.33333333333333,0)" xlink:href="#ar"/><use transform="matrix(0.041666666666666664,0,0,0.041666666666666664,45.83333333333333,0)" xlink:href="#as"/><use transform="matrix(0.041666666666666664,0,0,0.041666666666666664,51.666666666666664,0)" xlink:href="#at"/><use transform="matrix(0.041666666666666664,0,0,0.041666666666666664,59.166666666666664,0)" xlink:href="#ai"/><use transform="matrix(0.041666666666666664,0,0,0.041666666666666664,65.79166666666666,0)" xlink:href="#ap"/><use transform="matrix(0.041666666666666664,0,0,0.041666666666666664,73.29166666666666,0)" xlink:href="#aj"/><use transform="matrix(0.041666666666666664,0,0,0.041666666666666664,80.79166666666666,0)" xlink:href="#au"/></g><path fill="#fff" d="M126-118c4-37-42-32-68-25v131l24 4v8H8C5-13 21-9 28-12v-141c-7-3-23 1-20-12h48l1 13c22-15 77-30 92 2 32-22 104-36 104 29v109c8 3 24-2 21 12h-75v-8l25-4v-106c3-39-45-31-72-24 7 37 1 88 3 130l25 4v8h-78v-8l24-4v-106" id="av"/><g id="h"><use transform="matrix(0.041666666666666664,0,0,0.041666666666666664,0,0)" xlink:href="#ag"/><use transform="matrix(0.041666666666666664,0,0,0.041666666666666664,10.791666666666666,0)" xlink:href="#ah"/><use transform="matrix(0.041666666666666664,0,0,0.041666666666666664,18.291666666666664,0)" xlink:href="#ak"/><use transform="matrix(0.041666666666666664,0,0,0.041666666666666664,24.916666666666664,0)" xlink:href="#av"/></g><path fill="#fff" d="M60-80l68-73c-7-3-20 0-17-12h58c3 13-13 9-20 12l-47 48 60 93c7 3 21-1 18 12h-68c-3-12 9-9 15-12L82-83 60-60v48c7 3 21-1 18 12H10v-8l21-4v-226l-24-4v-8h53v170" id="aw"/><g id="i"><use transform="matrix(0.041666666666666664,0,0,0.041666666666666664,0,0)" xlink:href="#as"/><use transform="matrix(0.041666666666666664,0,0,0.041666666666666664,5.833333333333333,0)" xlink:href="#aw"/><use transform="matrix(0.041666666666666664,0,0,0.041666666666666664,13.333333333333332,0)" xlink:href="#ai"/><use transform="matrix(0.041666666666666664,0,0,0.041666666666666664,19.958333333333332,0)" xlink:href="#aq"/></g><path fill="#fff" d="M32-163c41-10 102-14 102 39v112c8 3 24-2 21 12h-45l-4-17C83 13 3 13 13-46c-2-50 45-50 92-51 4-36-5-70-42-56-6 2-12 4-16 6-4 7 0 23-15 20v-36zM42-47c0 41 41 33 63 22v-59c-34 1-63-1-63 37zm41-214c21 0 35 14 35 36s-14 36-35 36-36-15-36-36 15-36 36-36zm0 58c30 0 26-44 0-44-13 1-22 9-22 22s9 21 22 22" id="ax"/><g id="j"><use transform="matrix(0.041666666666666664,0,0,0.041666666666666664,0,0)" xlink:href="#ax"/><use transform="matrix(0.041666666666666664,0,0,0.041666666666666664,6.625,0)" xlink:href="#at"/><use transform="matrix(0.041666666666666664,0,0,0.041666666666666664,14.125,0)" xlink:href="#ap"/><use transform="matrix(0.041666666666666664,0,0,0.041666666666666664,21.625,0)" xlink:href="#ak"/></g><path fill="#fff" d="M75-17c87 13 134-18 134-103 0-78-51-106-134-100v203zm171-102C246 5 139 7 10 0v-9l31-5v-208l-31-4v-10h107c82 0 129 35 129 117" id="ay"/><path fill="#fff" d="M124-13C89 8 26 15 26-45v-108c-8-3-24 2-21-12h50v118c-3 37 42 32 69 25v-131l-25-4v-8h54v153c8 3 24-2 21 12h-48" id="az"/><path fill="#fff" d="M166-85c3 67-44 102-111 85l1 64 29 4v9H6v-9l21-4v-217c-7-3-22 1-19-12h46l1 9c11-8 26-14 45-14 47 2 64 36 66 85zM56-13c53 14 83-14 78-72 7-53-33-79-78-60v132" id="aA"/><g id="k"><use transform="matrix(0.041666666666666664,0,0,0.041666666666666664,0,0)" xlink:href="#ay"/><use transform="matrix(0.041666666666666664,0,0,0.041666666666666664,10.791666666666666,0)" xlink:href="#ai"/><use transform="matrix(0.041666666666666664,0,0,0.041666666666666664,17.416666666666664,0)" xlink:href="#al"/><use transform="matrix(0.041666666666666664,0,0,0.041666666666666664,22.375,0)" xlink:href="#az"/><use transform="matrix(0.041666666666666664,0,0,0.041666666666666664,29.875,0)" xlink:href="#aA"/></g><path fill="#fff" d="M103-236c-39-15-35 32-34 71h44v15H69v136l35 6v8H15v-8l25-6v-136H11v-9l29-7c-6-59 23-100 80-84v36c-15 2-12-14-17-22" id="aB"/><g id="l"><use transform="matrix(0.041666666666666664,0,0,0.041666666666666664,0,0)" xlink:href="#aB"/><use transform="matrix(0.041666666666666664,0,0,0.041666666666666664,4.958333333333333,0)" xlink:href="#ak"/><use transform="matrix(0.041666666666666664,0,0,0.041666666666666664,11.583333333333332,0)" xlink:href="#as"/><use transform="matrix(0.041666666666666664,0,0,0.041666666666666664,17.416666666666664,0)" xlink:href="#an"/><use transform="matrix(0.041666666666666664,0,0,0.041666666666666664,21.58333333333333,0)" xlink:href="#am"/><use transform="matrix(0.041666666666666664,0,0,0.041666666666666664,25.749999999999993,0)" xlink:href="#ah"/><use transform="matrix(0.041666666666666664,0,0,0.041666666666666664,33.24999999999999,0)" xlink:href="#ai"/><use transform="matrix(0.041666666666666664,0,0,0.041666666666666664,39.87499999999999,0)" xlink:href="#aq"/><use transform="matrix(0.041666666666666664,0,0,0.041666666666666664,44.04166666666666,0)" xlink:href="#au"/></g><g id="m"><use transform="matrix(0.041666666666666664,0,0,0.041666666666666664,0,0)" xlink:href="#an"/><use transform="matrix(0.041666666666666664,0,0,0.041666666666666664,4.166666666666666,0)" xlink:href="#am"/><use transform="matrix(0.041666666666666664,0,0,0.041666666666666664,8.333333333333332,0)" xlink:href="#aj"/></g><g id="n"><use transform="matrix(0.041666666666666664,0,0,0.041666666666666664,0,0)" xlink:href="#ah"/><use transform="matrix(0.041666666666666664,0,0,0.041666666666666664,7.5,0)" xlink:href="#am"/></g><g id="o"><use transform="matrix(0.041666666666666664,0,0,0.041666666666666664,0,0)" xlink:href="#as"/><use transform="matrix(0.041666666666666664,0,0,0.041666666666666664,5.833333333333333,0)" xlink:href="#aq"/><use transform="matrix(0.041666666666666664,0,0,0.041666666666666664,10,0)" xlink:href="#az"/><use transform="matrix(0.041666666666666664,0,0,0.041666666666666664,17.5,0)" xlink:href="#an"/><use transform="matrix(0.041666666666666664,0,0,0.041666666666666664,21.666666666666664,0)" xlink:href="#an"/><use transform="matrix(0.041666666666666664,0,0,0.041666666666666664,25.83333333333333,0)" xlink:href="#ak"/></g><path fill="#fff" d="M90-170c52 0 76 32 76 87 0 54-24 87-77 87-51 0-75-34-75-87 0-54 24-87 76-87zM89-10c39 0 46-35 46-73 0-39-7-73-46-73-39 1-44 34-44 73s6 72 44 73" id="aC"/><g id="p"><use transform="matrix(0.041666666666666664,0,0,0.041666666666666664,0,0)" xlink:href="#aB"/><use transform="matrix(0.041666666666666664,0,0,0.041666666666666664,4.958333333333333,0)" xlink:href="#aC"/><use transform="matrix(0.041666666666666664,0,0,0.041666666666666664,12.458333333333332,0)" xlink:href="#al"/></g><g id="q"><use transform="matrix(0.041666666666666664,0,0,0.041666666666666664,0,0)" xlink:href="#ai"/><use transform="matrix(0.041666666666666664,0,0,0.041666666666666664,6.625,0)" xlink:href="#aB"/><use transform="matrix(0.041666666666666664,0,0,0.041666666666666664,11.583333333333332,0)" xlink:href="#an"/><use transform="matrix(0.041666666666666664,0,0,0.041666666666666664,15.75,0)" xlink:href="#ak"/><use transform="matrix(0.041666666666666664,0,0,0.041666666666666664,22.375,0)" xlink:href="#ap"/><use transform="matrix(0.041666666666666664,0,0,0.041666666666666664,29.875,0)" xlink:href="#ak"/><use transform="matrix(0.041666666666666664,0,0,0.041666666666666664,36.5,0)" xlink:href="#ap"/><use transform="matrix(0.041666666666666664,0,0,0.041666666666666664,44,0)" xlink:href="#au"/></g><pattern id="r" patternUnits="userSpaceOnUse" width="840.29" height="711.68"><use xlink:href="#V" transform="translate(-1687.613803256967,80.31815956573774) scale(4735.227606513934,631.3636808685245)"/></pattern><pattern id="s" patternUnits="userSpaceOnUse" width="840.29" height="711.68"><use xlink:href="#W" transform="translate(-3865.818502253376,80.31815956573774) scale(9091.637004506752,631.3636808685245)"/></pattern><path d="M197 0v-115H63V0H30v-248h33v105h134v-105h34V0h-34" id="aD"/><path d="M108 0H70L1-190h34L89-25l56-165h34" id="aE"/><path d="M141-36C126-15 110 5 73 4 37 3 15-17 15-53c-1-64 63-63 125-63 3-35-9-54-41-54-24 1-41 7-42 31l-33-3c5-37 33-52 76-52 45 0 72 20 72 64v82c-1 20 7 32 28 27v20c-31 9-61-2-59-35zM48-53c0 20 12 33 32 33 41-3 63-29 60-74-43 2-92-5-92 41" id="aF"/><path d="M85-194c31 0 48 13 60 33l-1-100h32l1 261h-30c-2-10 0-23-3-31C134-8 116 4 85 4 32 4 16-35 15-94c0-66 23-100 70-100zm9 24c-40 0-46 34-46 75 0 40 6 74 45 74 42 0 51-32 51-76 0-42-9-74-50-73" id="aG"/><g id="t"><use transform="matrix(0.04938271604938272,0,0,0.04938271604938272,0,0)" xlink:href="#aD"/><use transform="matrix(0.04938271604938272,0,0,0.04938271604938272,12.790123456790125,0)" xlink:href="#aE"/><use transform="matrix(0.04938271604938272,0,0,0.04938271604938272,21.679012345679013,0)" xlink:href="#aF"/><use transform="matrix(0.04938271604938272,0,0,0.04938271604938272,31.555555555555557,0)" xlink:href="#aG"/></g><path d="M59-47c-2 24 18 29 38 22v24C64 9 27 4 27-40v-127H5v-23h24l9-43h21v43h35v23H59v120" id="aH"/><path d="M24-231v-30h32v30H24zM24 0v-190h32V0H24" id="aI"/><g id="u"><use transform="matrix(0.04938271604938272,0,0,0.04938271604938272,0,0)" xlink:href="#aH"/><use transform="matrix(0.04938271604938272,0,0,0.04938271604938272,4.938271604938272,0)" xlink:href="#aI"/><use transform="matrix(0.04938271604938272,0,0,0.04938271604938272,8.839506172839506,0)" xlink:href="#aG"/></g><path d="M135-143c-3-34-86-38-87 0 15 53 115 12 119 90S17 21 10-45l28-5c4 36 97 45 98 0-10-56-113-15-118-90-4-57 82-63 122-42 12 7 21 19 24 35" id="aJ"/><path d="M143 0L79-87 56-68V0H24v-261h32v163l83-92h37l-77 82L181 0h-38" id="aK"/><path d="M24 0v-261h32V0H24" id="aL"/><g id="v"><use transform="matrix(0.04938271604938272,0,0,0.04938271604938272,0,0)" xlink:href="#aJ"/><use transform="matrix(0.04938271604938272,0,0,0.04938271604938272,8.88888888888889,0)" xlink:href="#aK"/><use transform="matrix(0.04938271604938272,0,0,0.04938271604938272,17.77777777777778,0)" xlink:href="#aF"/><use transform="matrix(0.04938271604938272,0,0,0.04938271604938272,27.654320987654323,0)" xlink:href="#aL"/></g><path d="M100-194c62-1 85 37 85 99 1 63-27 99-86 99S16-35 15-95c0-66 28-99 85-99zM99-20c44 1 53-31 53-75 0-43-8-75-51-75s-53 32-53 75 10 74 51 75" id="aM"/><path d="M117-194c89-4 53 116 60 194h-32v-121c0-31-8-49-39-48C34-167 62-67 57 0H25l-1-190h30c1 10-1 24 2 32 11-22 29-35 61-36" id="aN"/><path d="M96-169c-40 0-48 33-48 73s9 75 48 75c24 0 41-14 43-38l32 2c-6 37-31 61-74 61-59 0-76-41-82-99-10-93 101-131 147-64 4 7 5 14 7 22l-32 3c-4-21-16-35-41-35" id="aO"/><path d="M100-194c63 0 86 42 84 106H49c0 40 14 67 53 68 26 1 43-12 49-29l28 8c-11 28-37 45-77 45C44 4 14-33 15-96c1-61 26-98 85-98zm52 81c6-60-76-77-97-28-3 7-6 17-6 28h103" id="aP"/><path d="M114-163C36-179 61-72 57 0H25l-1-190h30c1 12-1 29 2 39 6-27 23-49 58-41v29" id="aQ"/><g id="w"><use transform="matrix(0.04938271604938272,0,0,0.04938271604938272,0,0)" xlink:href="#aK"/><use transform="matrix(0.04938271604938272,0,0,0.04938271604938272,8.88888888888889,0)" xlink:href="#aM"/><use transform="matrix(0.04938271604938272,0,0,0.04938271604938272,18.765432098765434,0)" xlink:href="#aN"/><use transform="matrix(0.04938271604938272,0,0,0.04938271604938272,28.641975308641978,0)" xlink:href="#aO"/><use transform="matrix(0.04938271604938272,0,0,0.04938271604938272,37.53086419753087,0)" xlink:href="#aP"/><use transform="matrix(0.04938271604938272,0,0,0.04938271604938272,47.40740740740741,0)" xlink:href="#aQ"/><use transform="matrix(0.04938271604938272,0,0,0.04938271604938272,53.283950617283956,0)" xlink:href="#aH"/><use transform="matrix(0.04938271604938272,0,0,0.04938271604938272,58.22222222222223,0)" xlink:href="#aP"/><use transform="matrix(0.04938271604938272,0,0,0.04938271604938272,68.09876543209877,0)" xlink:href="#aQ"/><use transform="matrix(0.04938271604938272,0,0,0.04938271604938272,73.97530864197532,0)" xlink:href="#aN"/><use transform="matrix(0.04938271604938272,0,0,0.04938271604938272,83.85185185185186,0)" xlink:href="#aP"/></g><path d="M84 4C-5 8 30-112 23-190h32v120c0 31 7 50 39 49 72-2 45-101 50-169h31l1 190h-30c-1-10 1-25-2-33-11 22-28 36-60 37" id="aR"/><path d="M103-251c84 0 111 97 45 133-19 10-37 24-39 52H78c0-63 77-55 77-114 0-30-21-42-52-43-32 0-53 17-56 46l-32-2c7-45 34-72 88-72zM77 0v-35h34V0H77" id="aS"/><g id="x"><use transform="matrix(0.04938271604938272,0,0,0.04938271604938272,0,0)" xlink:href="#aJ"/><use transform="matrix(0.04938271604938272,0,0,0.04938271604938272,8.88888888888889,0)" xlink:href="#aL"/><use transform="matrix(0.04938271604938272,0,0,0.04938271604938272,12.790123456790125,0)" xlink:href="#aR"/><use transform="matrix(0.04938271604938272,0,0,0.04938271604938272,22.666666666666668,0)" xlink:href="#aH"/><use transform="matrix(0.04938271604938272,0,0,0.04938271604938272,27.60493827160494,0)" xlink:href="#aH"/><use transform="matrix(0.04938271604938272,0,0,0.04938271604938272,32.543209876543216,0)" xlink:href="#aP"/><use transform="matrix(0.04938271604938272,0,0,0.04938271604938272,42.41975308641976,0)" xlink:href="#aS"/></g><path fill="#fff" d="M238-236v10l-27 4-81 79L231-14l25 5v9h-57l-93-119-31 25v80l33 5v9H10v-9l31-5v-208l-31-4v-10h95v10l-30 4v111l112-111-23-4v-10h74" id="aT"/><g id="y"><use transform="matrix(0.041666666666666664,0,0,0.041666666666666664,0,0)" xlink:href="#aT"/><use transform="matrix(0.041666666666666664,0,0,0.041666666666666664,10.791666666666666,0)" xlink:href="#aq"/></g><path fill="#fff" d="M24-231c66-21 156 2 128 81C132-92 78-66 39-27h121V0H16v-26l59-54c26-25 47-47 47-97 0-48-47-57-81-37l-6 29H24v-46" id="aU"/><path fill="#fff" d="M110-14l48 5v9H32v-9l48-5v-192l-48 17v-10l69-39h9v224" id="aV"/><path fill="#fff" d="M45-37c13 0 21 8 21 21C67-2 57 4 45 5 33 4 23-2 24-16c0-13 8-21 21-21" id="aW"/><path fill="#fff" d="M104-123c39 3 61 21 62 59C167 7 83 12 19-4l-2-50h12c2 29 16 43 51 43 38 0 54-19 54-55 2-43-34-49-75-50v-14c37 0 64-7 64-48 0-47-47-56-81-36l-6 29H24v-46c51-13 135-13 131 51-2 34-20 52-51 57" id="aX"/><path fill="#fff" d="M90-239c59 0 76 52 76 120S152 4 89 4C31 4 14-51 14-119c0-67 17-120 76-120zM89-10c45-6 45-58 45-109 0-50 0-101-45-106-45 4-43 57-43 106 0 50-2 104 43 109" id="aY"/><g id="z"><use transform="matrix(0.041666666666666664,0,0,0.041666666666666664,0,0)" xlink:href="#aU"/><use transform="matrix(0.041666666666666664,0,0,0.041666666666666664,7.5,0)" xlink:href="#aV"/><use transform="matrix(0.041666666666666664,0,0,0.041666666666666664,15,0)" xlink:href="#aW"/><use transform="matrix(0.041666666666666664,0,0,0.041666666666666664,18.75,0)" xlink:href="#aX"/><use transform="matrix(0.041666666666666664,0,0,0.041666666666666664,26.25,0)" xlink:href="#aY"/></g><path fill="#fff" d="M142-52V0h-30v-52H7v-23l115-162h20v160h32v25h-32zm-30-25l-1-119L27-77h85" id="aZ"/><path fill="#fff" d="M134-68c4-52-44-63-88-51H29v-117h119v27H45v75c60-10 121-2 121 64C166 3 87 15 23-4l-2-50h12c1 28 14 43 47 43 39 0 51-20 54-57" id="ba"/><g id="A"><use transform="matrix(0.041666666666666664,0,0,0.041666666666666664,0,0)" xlink:href="#aU"/><use transform="matrix(0.041666666666666664,0,0,0.041666666666666664,7.5,0)" xlink:href="#aV"/><use transform="matrix(0.041666666666666664,0,0,0.041666666666666664,15,0)" xlink:href="#aW"/><use transform="matrix(0.041666666666666664,0,0,0.041666666666666664,18.75,0)" xlink:href="#aZ"/><use transform="matrix(0.041666666666666664,0,0,0.041666666666666664,26.25,0)" xlink:href="#ba"/></g><g id="B"><use transform="matrix(0.041666666666666664,0,0,0.041666666666666664,0,0)" xlink:href="#aU"/><use transform="matrix(0.041666666666666664,0,0,0.041666666666666664,7.5,0)" xlink:href="#aU"/><use transform="matrix(0.041666666666666664,0,0,0.041666666666666664,15,0)" xlink:href="#aW"/><use transform="matrix(0.041666666666666664,0,0,0.041666666666666664,18.75,0)" xlink:href="#aY"/><use transform="matrix(0.041666666666666664,0,0,0.041666666666666664,26.25,0)" xlink:href="#aY"/></g><g id="C"><use transform="matrix(0.041666666666666664,0,0,0.041666666666666664,0,0)" xlink:href="#aU"/><use transform="matrix(0.041666666666666664,0,0,0.041666666666666664,7.5,0)" xlink:href="#aU"/><use transform="matrix(0.041666666666666664,0,0,0.041666666666666664,15,0)" xlink:href="#aW"/><use transform="matrix(0.041666666666666664,0,0,0.041666666666666664,18.75,0)" xlink:href="#aV"/><use transform="matrix(0.041666666666666664,0,0,0.041666666666666664,26.25,0)" xlink:href="#ba"/></g><g id="D"><use transform="matrix(0.041666666666666664,0,0,0.041666666666666664,0,0)" xlink:href="#aU"/><use transform="matrix(0.041666666666666664,0,0,0.041666666666666664,7.5,0)" xlink:href="#aU"/><use transform="matrix(0.041666666666666664,0,0,0.041666666666666664,15,0)" xlink:href="#aW"/><use transform="matrix(0.041666666666666664,0,0,0.041666666666666664,18.75,0)" xlink:href="#aX"/><use transform="matrix(0.041666666666666664,0,0,0.041666666666666664,26.25,0)" xlink:href="#aY"/></g><pattern id="E" patternUnits="userSpaceOnUse" width="1280" height="713.68"><use xlink:href="#V" transform="translate(-1247.9029859227217,82.31815956573774) scale(4735.227606513934,631.3636808685245)"/></pattern><pattern id="F" patternUnits="userSpaceOnUse" width="1280" height="713.68"><use xlink:href="#W" transform="translate(-3426.107684919131,82.31815956573774) scale(9091.637004506752,631.3636808685245)"/></pattern><g id="G"><use transform="matrix(0.041666666666666664,0,0,0.041666666666666664,0,0)" xlink:href="#aU"/><use transform="matrix(0.041666666666666664,0,0,0.041666666666666664,7.5,0)" xlink:href="#aV"/><use transform="matrix(0.041666666666666664,0,0,0.041666666666666664,15,0)" xlink:href="#aW"/><use transform="matrix(0.041666666666666664,0,0,0.041666666666666664,18.75,0)" xlink:href="#aX"/><use transform="matrix(0.041666666666666664,0,0,0.041666666666666664,26.25,0)" xlink:href="#aY"/></g><g id="H"><use transform="matrix(0.041666666666666664,0,0,0.041666666666666664,0,0)" xlink:href="#aU"/><use transform="matrix(0.041666666666666664,0,0,0.041666666666666664,7.5,0)" xlink:href="#aV"/><use transform="matrix(0.041666666666666664,0,0,0.041666666666666664,15,0)" xlink:href="#aW"/><use transform="matrix(0.041666666666666664,0,0,0.041666666666666664,18.75,0)" xlink:href="#aZ"/><use transform="matrix(0.041666666666666664,0,0,0.041666666666666664,26.25,0)" xlink:href="#ba"/></g><g id="I"><use transform="matrix(0.041666666666666664,0,0,0.041666666666666664,0,0)" xlink:href="#aU"/><use transform="matrix(0.041666666666666664,0,0,0.041666666666666664,7.5,0)" xlink:href="#aU"/><use transform="matrix(0.041666666666666664,0,0,0.041666666666666664,15,0)" xlink:href="#aW"/><use transform="matrix(0.041666666666666664,0,0,0.041666666666666664,18.75,0)" xlink:href="#aY"/><use transform="matrix(0.041666666666666664,0,0,0.041666666666666664,26.25,0)" xlink:href="#aY"/></g><g id="J"><use transform="matrix(0.041666666666666664,0,0,0.041666666666666664,0,0)" xlink:href="#aU"/><use transform="matrix(0.041666666666666664,0,0,0.041666666666666664,7.5,0)" xlink:href="#aU"/><use transform="matrix(0.041666666666666664,0,0,0.041666666666666664,15,0)" xlink:href="#aW"/><use transform="matrix(0.041666666666666664,0,0,0.041666666666666664,18.75,0)" xlink:href="#aV"/><use transform="matrix(0.041666666666666664,0,0,0.041666666666666664,26.25,0)" xlink:href="#ba"/></g><g id="K"><use transform="matrix(0.041666666666666664,0,0,0.041666666666666664,0,0)" xlink:href="#aU"/><use transform="matrix(0.041666666666666664,0,0,0.041666666666666664,7.5,0)" xlink:href="#aU"/><use transform="matrix(0.041666666666666664,0,0,0.041666666666666664,15,0)" xlink:href="#aW"/><use transform="matrix(0.041666666666666664,0,0,0.041666666666666664,18.75,0)" xlink:href="#aX"/><use transform="matrix(0.041666666666666664,0,0,0.041666666666666664,26.25,0)" xlink:href="#aY"/></g><path d="M101-251c82-7 93 87 43 132L82-64C71-53 59-42 53-27h129V0H18c2-99 128-94 128-182 0-28-16-43-45-43s-46 15-49 41l-32-3c6-41 34-60 81-64" id="bb"/><path d="M252-156c43 0 55 33 55 80 0 46-13 78-56 78-42 0-55-33-55-78 0-48 12-80 56-80zM93 0H65l162-248h28zM13-171c-1-47 13-79 56-79s55 33 55 79-13 79-55 79c-43 0-56-33-56-79zM251-17c28 0 30-29 30-59 0-31-1-60-29-60-29 0-31 29-31 60 0 29 2 59 30 59zM69-112c27 0 28-30 29-59 0-31-1-60-29-60-29 0-30 30-30 60s2 59 30 59" id="bc"/><g id="L"><use transform="matrix(0.05,0,0,0.05,0,0)" xlink:href="#bb"/><use transform="matrix(0.05,0,0,0.05,10,0)" xlink:href="#bb"/><use transform="matrix(0.05,0,0,0.05,20,0)" xlink:href="#bc"/></g><path d="M101-251c68 0 85 55 85 127S166 4 100 4C33 4 14-52 14-124c0-73 17-127 87-127zm-1 229c47 0 54-49 54-102s-4-102-53-102c-51 0-55 48-55 102 0 53 5 102 54 102" id="bd"/><g id="M"><use transform="matrix(0.05,0,0,0.05,0,0)" xlink:href="#bb"/><use transform="matrix(0.05,0,0,0.05,10,0)" xlink:href="#bd"/><use transform="matrix(0.05,0,0,0.05,20,0)" xlink:href="#bc"/></g><path d="M27 0v-27h64v-190l-56 39v-29l58-41h29v221h61V0H27" id="be"/><g id="N"><use transform="matrix(0.05,0,0,0.05,0,0)" xlink:href="#be"/><use transform="matrix(0.05,0,0,0.05,10,0)" xlink:href="#bd"/><use transform="matrix(0.05,0,0,0.05,20,0)" xlink:href="#bc"/></g><path d="M110-160c48 1 74 30 74 79 0 53-28 85-80 85-65 0-83-55-86-122-5-90 50-162 133-122 14 7 22 21 27 39l-31 6c-5-40-67-38-82-6-9 19-15 44-15 74 11-20 30-34 60-33zm-7 138c34 0 49-23 49-58s-16-56-50-56c-29 0-50 16-49 49 1 36 15 65 50 65" id="bf"/><g id="O"><use transform="matrix(0.05,0,0,0.05,0,0)" xlink:href="#be"/><use transform="matrix(0.05,0,0,0.05,10,0)" xlink:href="#bf"/><use transform="matrix(0.05,0,0,0.05,20,0)" xlink:href="#bc"/></g><path d="M134-131c28 9 52 24 51 62-1 50-34 73-85 73S17-19 16-69c0-36 21-54 49-61-75-25-45-126 34-121 46 3 78 18 79 63 0 33-17 51-44 57zm-34-11c31 1 46-15 46-44 0-28-17-43-47-42-29 0-46 13-45 42 1 28 16 44 46 44zm1 122c35 0 51-18 51-52 0-30-18-46-53-46-33 0-51 17-51 47 0 34 19 51 53 51" id="bg"/><g id="P"><use transform="matrix(0.05,0,0,0.05,0,0)" xlink:href="#be"/><use transform="matrix(0.05,0,0,0.05,10,0)" xlink:href="#bg"/><use transform="matrix(0.05,0,0,0.05,20,0)" xlink:href="#bc"/></g><path d="M178-68c0 79-95 82-154 59v-54h12c1 35 22 52 60 52 50 0 69-58 33-82-39-24-105-21-105-85 0-67 86-66 142-53v49h-12l-6-29c-31-27-121-7-89 42 28 43 119 24 119 101" id="bh"/><path d="M54-38c-1 25 24 26 44 20v12C71 10 25 9 25-35v-115H4c-2-14 14-10 21-15l18-38h11v38h38v15H54v112" id="bi"/><path d="M84-170c49 0 66 33 63 87H46c-8 60 38 80 95 63v10C128-2 108 4 88 4 34 4 14-29 14-84c-1-54 22-86 70-86zm33 73c12-57-57-82-69-24-1 7-2 15-2 24h71" id="bj"/><path d="M126-118c4-37-42-32-68-25v131l24 4v8H8C5-13 21-9 28-12v-141c-7-3-23 1-20-12h48l1 13c22-15 77-30 92 2 32-22 104-36 104 29v109c8 3 24-2 21 12h-75v-8l25-4v-106c3-39-45-31-72-24 7 37 1 88 3 130l25 4v8h-78v-8l24-4v-106" id="bk"/><g id="Q"><use transform="matrix(0.041666666666666664,0,0,0.041666666666666664,0,0)" xlink:href="#bh"/><use transform="matrix(0.041666666666666664,0,0,0.041666666666666664,8.333333333333332,0)" xlink:href="#bi"/><use transform="matrix(0.041666666666666664,0,0,0.041666666666666664,12.5,0)" xlink:href="#bj"/><use transform="matrix(0.041666666666666664,0,0,0.041666666666666664,19.125,0)" xlink:href="#bk"/></g><path d="M205 0l-28-72H64L36 0H1l101-248h38L239 0h-34zm-38-99l-47-123c-12 45-31 82-46 123h93" id="bl"/><path d="M101-234c-31-9-42 10-38 44h38v23H63V0H32v-167H5v-23h27c-7-52 17-82 69-68v24" id="bm"/><g id="R"><use transform="matrix(0.05,0,0,0.05,0,0)" xlink:href="#bl"/><use transform="matrix(0.05,0,0,0.05,12,0)" xlink:href="#bm"/></g><path d="M155-56V0h-30v-56H8v-25l114-167h33v167h35v25h-35zm-30-156c-27 46-58 90-88 131h88v-131" id="bn"/><path d="M33 0v-38h34V0H33" id="bo"/><path d="M126-127c33 6 58 20 58 59 0 88-139 92-164 29-3-8-5-16-6-25l32-3c6 27 21 44 54 44 32 0 52-15 52-46 0-38-36-46-79-43v-28c39 1 72-4 72-42 0-27-17-43-46-43-28 0-47 15-49 41l-32-3c6-42 35-63 81-64 48-1 79 21 79 65 0 36-21 52-52 59" id="bp"/><g id="S"><use transform="matrix(0.05,0,0,0.05,0,0)" xlink:href="#bn"/><use transform="matrix(0.05,0,0,0.05,10,0)" xlink:href="#be"/><use transform="matrix(0.05,0,0,0.05,20,0)" xlink:href="#bo"/><use transform="matrix(0.05,0,0,0.05,25,0)" xlink:href="#bp"/><use transform="matrix(0.05,0,0,0.05,35,0)" xlink:href="#bn"/><use transform="matrix(0.05,0,0,0.05,45,0)" xlink:href="#bg"/></g><path d="M177-190C167-65 218 103 67 71c-23-6-38-20-44-43l32-5c15 47 100 32 89-28v-30C133-14 115 1 83 1 29 1 15-40 15-95c0-56 16-97 71-98 29-1 48 16 59 35 1-10 0-23 2-32h30zM94-22c36 0 50-32 50-73 0-42-14-75-50-75-39 0-46 34-46 75s6 73 46 73" id="bq"/><g id="T"><use transform="matrix(0.05,0,0,0.05,0,0)" xlink:href="#aF"/><use transform="matrix(0.05,0,0,0.05,10,0)" xlink:href="#bm"/><use transform="matrix(0.05,0,0,0.05,15,0)" xlink:href="#bq"/><use transform="matrix(0.05,0,0,0.05,25,0)" xlink:href="#aI"/><use transform="matrix(0.05,0,0,0.05,28.950000000000003,0)" xlink:href="#aE"/><use transform="matrix(0.05,0,0,0.05,37.95,0)" xlink:href="#aN"/><use transform="matrix(0.05,0,0,0.05,47.95,0)" xlink:href="#aP"/></g><path d="M210-169c-67 3-38 105-44 169h-31v-121c0-29-5-50-35-48C34-165 62-65 56 0H25l-1-190h30c1 10-1 24 2 32 10-44 99-50 107 0 11-21 27-35 58-36 85-2 47 119 55 194h-31v-121c0-29-5-49-35-48" id="br"/><g id="U"><use transform="matrix(0.05,0,0,0.05,0,0)" xlink:href="#aJ"/><use transform="matrix(0.05,0,0,0.05,9,0)" xlink:href="#aH"/><use transform="matrix(0.05,0,0,0.05,14,0)" xlink:href="#aP"/><use transform="matrix(0.05,0,0,0.05,24,0)" xlink:href="#br"/><use transform="matrix(0.05,0,0,0.05,38.95,0)" xlink:href="#br"/><use transform="matrix(0.05,0,0,0.05,53.900000000000006,0)" xlink:href="#aP"/><use transform="matrix(0.05,0,0,0.05,63.900000000000006,0)" xlink:href="#aQ"/><use transform="matrix(0.05,0,0,0.05,68.85000000000001,0)" xlink:href="#bo"/></g></defs></g></svg>